<?xml version="1.0" standalone="no"?>
<!DOCTYPE svg PUBLIC "-//W3C//DTD SVG 1.1//EN" "http://www.w3.org/Graphics/SVG/1.1/DTD/svg11.dtd" >
<svg xmlns="http://www.w3.org/2000/svg" xmlns:xlink="http://www.w3.org/1999/xlink" version="1.1">
<metadata></metadata>
<defs>
<font id="terminathin" horiz-adv-x="1523" >
<font-face units-per-em="2048" ascent="1638" descent="-410" />
<missing-glyph horiz-adv-x="688" />
<glyph unicode="&#xfb01;" horiz-adv-x="1437" d="M47 1067v39h240v174q0 67 25.5 121t68 87t93 50.5t104.5 17.5q197 0 317 -114l-23 -31q-113 107 -294 107q-103 0 -176.5 -65t-73.5 -177v-170h551v-39h-551v-1067h-41v1067h-240zM1124 1358q0 22 14.5 35.5t37.5 13.5t37 -13.5t14 -35.5t-14 -35.5t-37 -13.5t-37.5 13.5 t-14.5 35.5zM1159 0v1106h41v-1106h-41z" />
<glyph unicode="&#xfb02;" horiz-adv-x="1445" d="M47 1067v39h240v174q0 67 25.5 121t68 87t93 50.5t104.5 17.5q197 0 317 -114l-23 -31q-113 107 -294 107q-103 0 -176.5 -65t-73.5 -177v-170h551v-39h-551v-1067h-41v1067h-240zM1159 0v1516h41v-1516h-41z" />
<glyph horiz-adv-x="0" />
<glyph horiz-adv-x="682" />
<glyph unicode=" "  horiz-adv-x="688" />
<glyph unicode="&#x09;" horiz-adv-x="688" />
<glyph unicode="&#xa0;" horiz-adv-x="688" />
<glyph unicode="!" horiz-adv-x="550" d="M229 37q0 22 13.5 35.5t36.5 13.5t36 -13.5t13 -35.5t-13 -35.5t-36 -13.5t-36.5 13.5t-13.5 35.5zM254 1434h41l-2 -1100h-37z" />
<glyph unicode="&#x22;" horiz-adv-x="772" d="M205 975v541h41v-541h-41zM526 975v541h41v-541h-41z" />
<glyph unicode="#" horiz-adv-x="1933" d="M131 444v39h356l142 494h-428v39h440l119 418h41l-119 -418h733l119 418h41l-119 -418h344v-39h-356l-141 -494h428v-39h-439l-127 -444h-41l127 444h-733l-127 -444h-41l127 444h-346zM528 483h734l141 494h-733z" />
<glyph unicode="$" horiz-adv-x="1759" d="M119 315l35 25q103 -145 294.5 -220.5t434.5 -80.5v680q-91 9 -153 17t-143 22t-134.5 30.5t-111 42.5t-91 57.5t-55 76t-21.5 98.5q0 93 59 165.5t159 116.5t222.5 66.5t259.5 22.5h9v192h41v-192q424 -15 624 -246l-35 -25q-188 217 -589 230v-637q116 -11 199.5 -23 t169.5 -30.5t143.5 -44t104.5 -61t69 -84t22 -110.5q0 -182 -184.5 -292t-523.5 -111v-213h-41v213q-256 5 -456.5 85.5t-307.5 229.5zM217 1063q0 -45 18.5 -82t49.5 -64.5t81.5 -50.5t102.5 -38.5t125 -28.5t138 -21.5t151 -17.5v635h-9q-115 1 -228 -19t-210.5 -58.5 t-158 -105t-60.5 -149.5zM924 39q317 1 491 101.5t174 262.5q0 53 -19.5 95t-62.5 73t-95 53t-133.5 39.5t-161 28.5t-193.5 23v-676z" />
<glyph unicode="%" horiz-adv-x="1765" d="M102 1165q0 126 89.5 207.5t228.5 81.5t228 -81.5t89 -207.5t-89 -207t-228 -81t-228.5 81t-89.5 207zM145 1165q0 -110 78 -180t197 -70t196.5 70t77.5 180t-77.5 180t-196.5 70t-197 -70t-78 -180zM299 0l1118 1434h49l-1118 -1434h-49zM1028 268q0 126 89.5 207.5 t228.5 81.5t228 -81.5t89 -207.5t-89 -207t-228 -81t-228.5 81t-89.5 207zM1071 268q0 -110 78 -180t197 -70t196.5 70t77.5 180t-77.5 180t-196.5 70t-197 -70t-78 -180z" />
<glyph unicode="&#x26;" horiz-adv-x="1800" d="M154 416q0 154 93 253t259 144q-82 67 -127 139t-45 164q0 160 133 259.5t354 99.5q220 0 362 -97.5t208 -261.5l-35 -18q-144 338 -535 338q-203 0 -323.5 -88.5t-120.5 -231.5q0 -50 17.5 -96.5t41.5 -80t69 -72.5t78 -63t91 -63q8 -5 12 -8l737 -504q136 168 136 433 h40q0 -281 -143 -455l301 -207h-69l-258 176q-204 -217 -615 -217q-298 0 -479.5 129.5t-181.5 327.5zM197 416q0 -182 168.5 -300t449.5 -118q387 0 582 201l-721 491q-103 71 -133 94q-346 -88 -346 -368z" />
<glyph unicode="'" horiz-adv-x="450" d="M205 975v541h41v-541h-41z" />
<glyph unicode="(" horiz-adv-x="839" d="M152 594q0 205 66 379.5t196 302t311 188.5l20 -37q-258 -86 -404 -307t-146 -526t146 -526.5t404 -307.5l-20 -36q-181 61 -311 188.5t-196 302t-66 379.5z" />
<glyph unicode=")" horiz-adv-x="839" d="M94 -240q258 86 404.5 308t146.5 526t-146.5 525.5t-404.5 307.5l21 37q181 -61 311 -188.5t196 -302t66 -379.5t-66 -379.5t-196 -302t-311 -188.5z" />
<glyph unicode="*" horiz-adv-x="1118" d="M152 1079v41l378 -4l-192 326l35 20l186 -334l186 334l35 -20l-192 -326l379 4v-41l-379 4l192 -325l-35 -21l-186 334l-186 -334l-35 21l192 325z" />
<glyph unicode="+" d="M209 588v39h532v487h41v-487h533v-39h-533v-488h-41v488h-532z" />
<glyph unicode="," horiz-adv-x="464" d="M188 37q0 22 13.5 35.5t36.5 13.5t36 -13.5t13 -35.5q0 -138 -72 -279l-27 13q63 120 66 223q-3 -6 -21 -6q-21 0 -33 13.5t-12 35.5z" />
<glyph unicode="-" horiz-adv-x="1220" d="M201 588v39h819v-39h-819z" />
<glyph unicode="." horiz-adv-x="454" d="M178 37q0 22 13 35.5t36 13.5t36 -13.5t13 -35.5t-13 -35.5t-36 -13.5t-36 13.5t-13 35.5z" />
<glyph unicode="/" horiz-adv-x="1304" d="M76 -205l1106 1802h47l-1106 -1802h-47z" />
<glyph unicode="0" horiz-adv-x="1912" d="M158 717q0 348 210 553t588 205q189 0 340 -54t251.5 -153.5t154 -239.5t53.5 -311t-53.5 -311t-154 -239.5t-251.5 -153.5t-340 -54q-378 0 -588 205t-210 553zM201 717q0 -340 203 -529.5t552 -189.5t552.5 190t203.5 529t-203.5 529t-552.5 190t-552 -189.5 t-203 -529.5z" />
<glyph unicode="1" horiz-adv-x="849" d="M78 1147v39q223 35 465 248h32v-1434h-40v1380q-210 -194 -457 -233z" />
<glyph unicode="2" horiz-adv-x="1650" d="M119 0v33q39 169 234.5 320.5t512.5 271.5q126 48 187.5 72.5t149.5 69t128.5 81.5t71.5 91.5t31 117.5q0 87 -49.5 159.5t-132 120t-189.5 73.5t-223 26q-225 0 -388 -90t-243 -248l-35 18q79 163 253.5 261t412.5 98q125 0 239.5 -29t203 -82t141.5 -132.5t53 -174.5 q0 -49 -15.5 -93t-41 -79.5t-70 -70.5t-89 -62t-112.5 -58t-127 -54.5t-145 -55.5q-184 -69 -331 -152t-250 -186t-128 -207h1345v-39h-1394z" />
<glyph unicode="3" horiz-adv-x="1710" d="M115 319l37 19q154 -340 677 -340q307 0 493.5 109t186.5 288q0 117 -85 198.5t-236.5 121t-358.5 39.5h-163v39h163q131 0 239.5 17.5t197 54t138.5 101t50 150.5q0 96 -87 170t-228 112t-310 38q-234 0 -394 -76.5t-232 -216.5l-37 18q73 147 245 230.5t418 83.5 q179 0 330.5 -43t244.5 -126t93 -190q0 -78 -39.5 -143t-104.5 -106t-143 -64.5t-161 -26.5q70 -6 137 -22t134.5 -46.5t118 -71.5t82 -103.5t31.5 -137.5q0 -195 -199.5 -315.5t-523.5 -120.5q-146 0 -266 27t-206.5 76t-146.5 113t-95 144z" />
<glyph unicode="4" horiz-adv-x="1726" d="M78 408v38l1194 988h33v-988h333v-38h-333v-408h-41v408h-1186zM143 446h1121v928z" />
<glyph unicode="5" horiz-adv-x="1699" d="M139 346l35 19q74 -168 248 -267.5t440 -99.5q298 0 485 119.5t187 302.5q0 207 -182 315.5t-498 108.5q-325 0 -627 -131l-28 8l123 713h1105v-39h-1073l-110 -641q156 73 299.5 101t310.5 28q165 0 296.5 -28.5t227.5 -84.5t147.5 -145t51.5 -205q0 -131 -89.5 -236 t-253.5 -165t-372 -60q-278 0 -464.5 106.5t-258.5 280.5z" />
<glyph unicode="6" horiz-adv-x="1789" d="M158 717q0 347 210.5 552.5t583.5 205.5q419 0 633 -265l-33 -26q-206 252 -600 252q-227 0 -395.5 -83.5t-262 -247t-93.5 -388.5q0 -121 28 -230q80 172 293.5 284t470.5 112q308 0 483 -116.5t175 -346.5q0 -131 -87 -236t-247.5 -165t-364.5 -60q-373 0 -583.5 205.5 t-210.5 552.5zM242 444q73 -214 259 -330t451 -116q292 0 474 119.5t182 302.5q0 208 -163.5 316t-451.5 108q-246 0 -449.5 -107.5t-301.5 -292.5z" />
<glyph unicode="7" horiz-adv-x="1507" d="M59 1395v39h1397v-33l-878 -1401h-54l879 1395h-1344z" />
<glyph unicode="8" horiz-adv-x="1802" d="M158 375q0 81 33 147.5t85 109.5t122 74.5t137.5 47.5t138.5 22q-85 4 -165.5 27.5t-147.5 64.5t-107.5 105.5t-40.5 142.5q0 107 95.5 190t251 126t341.5 43t341.5 -43t251 -126t95.5 -190q0 -78 -40.5 -142.5t-107.5 -105.5t-147.5 -64.5t-165.5 -27.5q71 -6 138.5 -22 t138 -47.5t122.5 -74.5t85 -109.5t33 -147.5q0 -181 -207 -298.5t-537 -117.5q-218 0 -388 54t-262.5 148.5t-92.5 213.5zM201 375q0 -108 86 -193.5t246.5 -134.5t367.5 -49t367.5 49t247 134.5t86.5 193.5q0 188 -187 283.5t-514 95.5t-513.5 -95.5t-186.5 -283.5z M256 1116q0 -86 51 -150t142.5 -101t204 -54.5t247.5 -17.5t247.5 17.5t204 54.5t142.5 101t51 150q0 96 -89.5 170t-235 112t-320.5 38t-320.5 -38t-235 -112t-89.5 -170z" />
<glyph unicode="9" horiz-adv-x="1789" d="M139 1014q0 131 87 236t247.5 165t364.5 60q373 0 583.5 -205.5t210.5 -552.5t-210.5 -552.5t-583.5 -205.5q-420 0 -633 264l33 27q206 -252 600 -252q227 0 395.5 83.5t262 247t93.5 388.5q0 120 -28 229q-80 -172 -293.5 -283.5t-470.5 -111.5q-308 0 -483 116.5 t-175 346.5zM182 1014q0 -208 163.5 -316t451.5 -108q246 0 449.5 107t301.5 292q-73 214 -259 330.5t-451 116.5q-292 0 -474 -119.5t-182 -302.5z" />
<glyph unicode=":" horiz-adv-x="454" d="M178 37q0 22 13 35.5t36 13.5t36 -13.5t13 -35.5t-13 -35.5t-36 -13.5t-36 13.5t-13 35.5zM178 1073q0 22 13 35.5t36 13.5t36 -13.5t13 -35.5t-13 -35.5t-36 -13.5t-36 13.5t-13 35.5z" />
<glyph unicode=";" horiz-adv-x="454" d="M178 37q0 22 13 35.5t36 13.5t36 -13.5t13 -35.5q0 -140 -71 -279l-27 13q63 120 66 223q-3 -6 -21 -6q-21 0 -33 13.5t-12 35.5zM178 1073q0 22 13 35.5t36 13.5t36 -13.5t13 -35.5t-13 -35.5t-36 -13.5t-36 13.5t-13 35.5z" />
<glyph unicode="&#x3c;" d="M219 588l1024 -484v43l-971 461l971 461v43l-1024 -483v-41z" />
<glyph unicode="=" d="M209 362v39h1106v-39h-1106zM209 813v39h1106v-39h-1106z" />
<glyph unicode="&#x3e;" d="M281 104l1024 484v41l-1024 483v-43l970 -461l-970 -461v-43z" />
<glyph unicode="?" horiz-adv-x="1484" d="M94 1116q78 162 257 260.5t417 98.5q162 0 298 -46t221 -137.5t85 -212.5q0 -89 -47 -160.5t-131 -119t-196.5 -74.5t-247.5 -33v-319h-41v352q177 4 316 45.5t221.5 121.5t82.5 187q0 110 -79 192.5t-205 123.5t-277 41q-224 0 -389.5 -90.5t-245.5 -247.5zM684 37 q0 22 13 35.5t36 13.5t36 -13.5t13 -35.5t-13 -35.5t-36 -13.5t-36 13.5t-13 35.5z" />
<glyph unicode="@" horiz-adv-x="2271" d="M154 553q0 184 74.5 341.5t204.5 266.5t310 170.5t385 61.5t385 -61.5t310 -170.5t205 -266.5t75 -341.5q0 -251 -73 -377.5t-185 -126.5q-97 0 -156.5 77.5t-60.5 207.5q-64 -145 -211.5 -229.5t-326.5 -84.5q-158 0 -286 63.5t-204 186t-76 283.5q0 121 44 222 t120.5 168.5t180 104.5t221.5 37q179 0 326.5 -84.5t211.5 -228.5v272h41v-675q0 -149 51 -215t125 -66q40 0 77 25t68.5 77.5t50.5 146t19 216.5q0 145 -48.5 273t-135 223.5t-203 165t-256 104.5t-289.5 35q-188 0 -357 -56t-296.5 -157.5t-202.5 -254t-75 -333.5 t75 -333.5t202.5 -254t296.5 -157.5t357 -56q170 0 322.5 45t267.5 129l23 -35q-237 -178 -613 -178q-205 0 -385 61.5t-310 170.5t-204.5 266.5t-74.5 341.5zM567 553q0 -226 148 -360t375 -134q180 0 325 89t213 249v312q-68 160 -213 249t-325 89q-227 0 -375 -134 t-148 -360z" />
<glyph unicode="A" horiz-adv-x="1794" d="M57 0l817 1434h46l817 -1434h-45l-267 465v-2h-1058l-263 -463h-47zM389 502h1016l-510 891z" />
<glyph unicode="B" horiz-adv-x="1884" d="M274 0v1434h936q123 0 220 -37.5t157 -118.5t60 -195q0 -134 -87.5 -229.5t-232.5 -110.5q67 -3 124 -15.5t109.5 -39.5t89 -67t58 -100.5t21.5 -137.5q0 -193 -135.5 -288t-383.5 -95h-936zM315 39h895q476 0 476 344q0 176 -121.5 255t-354.5 79h-895v-678zM315 756 h895q170 0 282 87t112 240q0 103 -54 175t-141 104.5t-199 32.5h-895v-639z" />
<glyph unicode="C" horiz-adv-x="1816" d="M158 717q0 347 222.5 552.5t616.5 205.5q483 0 699 -314l-37 -20q-207 295 -662 295q-241 0 -419.5 -83.5t-277.5 -247t-99 -388.5t99 -388.5t277.5 -247t419.5 -83.5q455 0 662 295l37 -21q-215 -313 -699 -313q-394 0 -616.5 205.5t-222.5 552.5z" />
<glyph unicode="D" horiz-adv-x="1910" d="M274 0v1434h639q384 0 612 -195t228 -522t-228 -522t-612 -195h-639zM315 39h598q232 0 411 77.5t282.5 232.5t103.5 368t-103.5 368t-282.5 232.5t-411 77.5h-598v-1356z" />
<glyph unicode="E" horiz-adv-x="1728" d="M274 0v1434h1291v-39h-1250v-645h1086v-39h-1086v-672h1270v-39h-1311z" />
<glyph unicode="F" horiz-adv-x="1658" d="M274 0v1434h1291v-39h-1250v-670h1086v-39h-1086v-686h-41z" />
<glyph unicode="G" horiz-adv-x="1939" d="M158 717q0 347 224 552.5t622 205.5q492 0 710 -310l-35 -24q-210 295 -675 295q-181 0 -330 -48.5t-253.5 -139.5t-162 -226.5t-57.5 -304.5t57.5 -304.5t162 -226.5t253.5 -139.5t330 -48.5q173 0 322 47t262 142.5t167 228.5v246h-760v38h801v-292 q-74 -200 -285 -324.5t-507 -124.5q-398 0 -622 205.5t-224 552.5z" />
<glyph unicode="H" horiz-adv-x="1982" d="M274 0v1434h41v-689h1352v689h41v-1434h-41v707h-1352v-707h-41z" />
<glyph unicode="I" horiz-adv-x="589" d="M274 0v1434h41v-1434h-41z" />
<glyph unicode="J" horiz-adv-x="1366" d="M66 188l32 23q139 -213 461 -213q108 0 195 28.5t147.5 80t101 123.5t59.5 157.5t19 185.5v861h41v-861q0 -101 -18.5 -189.5t-61 -167.5t-106 -135t-160 -89t-217.5 -33q-346 0 -493 229z" />
<glyph unicode="K" horiz-adv-x="1777" d="M274 0v1434h41v-953l1309 953h64l-764 -557l813 -877h-58l-790 850l-574 -418v-432h-41z" />
<glyph unicode="L" horiz-adv-x="1542" d="M274 0v1434h41v-1395h1168v-39h-1209z" />
<glyph unicode="M" horiz-adv-x="2269" d="M274 0v1434h45l816 -977l819 977h41v-1434h-41v1370l-817 -977h-4l-818 977v-1370h-41z" />
<glyph unicode="N" horiz-adv-x="1982" d="M274 0v1434h50l1343 -1371v1371h41v-1434h-37l-1356 1382v-1382h-41z" />
<glyph unicode="O" horiz-adv-x="1994" d="M158 717q0 348 222 553t617 205t617.5 -205t222.5 -553t-222.5 -553t-617.5 -205t-617 205t-222 553zM201 717q0 -224 99 -387.5t278 -247.5t419 -84q365 0 581 191t216 528t-216 528t-581 191q-240 0 -419 -84t-278 -247.5t-99 -387.5z" />
<glyph unicode="P" horiz-adv-x="1818" d="M274 0v1434h916q240 0 379 -116t139 -312q0 -198 -139 -314.5t-379 -116.5h-875v-575h-41zM315 614h875q223 0 349 105.5t126 286.5q0 180 -126 284.5t-349 104.5h-875v-781z" />
<glyph unicode="Q" horiz-adv-x="1994" d="M158 717q0 348 222 553t617 205t617.5 -205t222.5 -553q0 -221 -92 -387t-266 -262l229 -265l-31 -24l-235 270q-185 -90 -445 -90q-395 0 -617 205t-222 553zM201 717q0 -224 99 -387.5t278 -247.5t419 -84q236 0 418 84l-274 315l30 25l279 -322q165 89 254.5 246 t89.5 371q0 337 -216 528t-581 191q-240 0 -419 -84t-278 -247.5t-99 -387.5z" />
<glyph unicode="R" horiz-adv-x="1878" d="M274 0v1434h916q239 0 378.5 -112t139.5 -304q0 -187 -129.5 -298.5t-355.5 -119.5l530 -600h-53l-531 600h-854v-600h-41zM315 639h875q223 0 349 101t126 278q0 175 -126.5 276t-348.5 101h-875v-756z" />
<glyph unicode="S" horiz-adv-x="1761" d="M125 274l35 25q106 -149 305.5 -225t452.5 -76q319 0 498 109.5t179 275.5q0 55 -21 99t-65 77.5t-101.5 58.5t-140.5 44t-170.5 32t-203.5 25q-85 9 -153.5 18.5t-144.5 25t-134 34t-113 46.5t-90.5 61.5t-56.5 79t-21 99.5q0 93 59.5 169t158.5 123.5t223.5 73.5 t259.5 26q460 0 673 -246l-34 -25q-197 229 -639 232h-9q-108 0 -218 -22q-114 -23 -211.5 -65.5t-158.5 -112t-61 -153.5q0 -54 25.5 -98t74.5 -77t110.5 -57.5t145.5 -42.5t166 -30t185 -22q135 -13 236 -30t193.5 -46t151 -68.5t93 -97t34.5 -131.5q0 -186 -189 -305 t-531 -119q-265 0 -473.5 81t-319.5 234z" />
<glyph unicode="T" horiz-adv-x="1597" d="M57 1395v39h1483v-39h-721v-1395h-41v1395h-721z" />
<glyph unicode="U" horiz-adv-x="1921" d="M244 676v758h41v-758q0 -309 180.5 -493.5t495.5 -184.5t495 184.5t180 493.5v758h41v-758q0 -154 -46.5 -284.5t-134.5 -227t-225 -151t-310 -54.5t-310 54.5t-225.5 151t-135 227t-46.5 284.5z" />
<glyph unicode="V" horiz-adv-x="1753" d="M57 1434h47l775 -1385l772 1385h45l-799 -1434h-41z" />
<glyph unicode="W" horiz-adv-x="2410" d="M88 1434h45l512 -1375l539 1375h45l536 -1375l514 1375h43l-536 -1434h-41l-539 1378l-540 -1378h-41z" />
<glyph unicode="X" horiz-adv-x="1591" d="M63 0l705 717l-705 717h58l676 -689l673 689h58l-705 -717l705 -717h-58l-675 688l-674 -688h-58z" />
<glyph unicode="Y" horiz-adv-x="1654" d="M61 1434h54l714 -881l713 881h51l-745 -922v-512h-41v512z" />
<glyph unicode="Z" horiz-adv-x="1640" d="M90 0v35l1360 1360h-1323v39h1384v-35l-1359 -1360h1392v-39h-1454z" />
<glyph unicode="[" horiz-adv-x="841" d="M274 -246v1680h474v-39h-433v-1602h433v-39h-474z" />
<glyph unicode="\" horiz-adv-x="1304" d="M76 1597h47l1106 -1802h-47z" />
<glyph unicode="]" horiz-adv-x="841" d="M94 -207h432v1602h-432v39h473v-1680h-473v39z" />
<glyph unicode="^" d="M250 532h49l463 854l463 -854h49l-492 902h-41z" />
<glyph unicode="_" horiz-adv-x="1261" d="M12 -172h1237v-39h-1237v39z" />
<glyph unicode="`" horiz-adv-x="1130" d="M332 1884h69l398 -287h-70z" />
<glyph unicode="a" d="M119 350q0 83 37.5 151t98 111.5t139.5 73.5t158.5 42.5t158.5 12.5q192 0 345.5 -73t207.5 -199v139q0 243 -133 371.5t-390 128.5q-147 0 -274.5 -41t-222.5 -109l-23 33q96 70 232 113t288 43q266 0 415 -137t149 -400v-391q0 -124 53 -219h-45q-49 87 -49 221v10 q-54 -125 -208 -198.5t-345 -73.5q-79 0 -158.5 12.5t-158.5 42.5t-139.5 73.5t-98 111.5t-37.5 151zM162 350q0 -78 37 -140.5t94 -101t132 -64.5t146 -36t140 -10q190 0 342.5 77.5t210.5 219.5v111q-58 143 -210 219.5t-343 76.5q-69 0 -140 -10t-146 -36t-132 -64.5 t-94 -101t-37 -140.5z" />
<glyph unicode="b" horiz-adv-x="1626" d="M238 0v1516h41v-682q83 148 235 230.5t348 82.5q291 0 455 -163t164 -431t-164 -431t-455 -163q-196 0 -348 82.5t-235 230.5v-272h-41zM279 336q86 -161 236.5 -249.5t346.5 -88.5q267 0 421.5 150t154.5 405t-154.5 405t-421.5 150q-196 0 -346.5 -88.5t-236.5 -249.5 v-434z" />
<glyph unicode="c" horiz-adv-x="1474" d="M145 553q0 273 173.5 433.5t480.5 160.5q190 0 332 -65t221 -183l-33 -22q-73 113 -206.5 172t-313.5 59q-285 0 -448 -145t-163 -410t163 -410t448 -145q182 0 316.5 60.5t207.5 177.5l33 -23q-77 -121 -220.5 -187.5t-336.5 -66.5q-307 0 -480.5 160.5t-173.5 433.5z " />
<glyph unicode="d" horiz-adv-x="1626" d="M145 553q0 268 164 431t455 163q196 0 349 -82.5t235 -230.5v682h41v-1516h-41v272q-82 -148 -235 -230.5t-349 -82.5q-291 0 -455 163t-164 431zM188 553q0 -255 154.5 -405t421.5 -150q196 0 347.5 88.5t236.5 249.5v434q-85 161 -236.5 249.5t-347.5 88.5 q-267 0 -421.5 -150t-154.5 -405z" />
<glyph unicode="e" horiz-adv-x="1554" d="M145 553q0 273 171 433.5t475 160.5q293 0 457 -150t175 -411v-4h-39h-1196v-29q0 -265 160.5 -410t442.5 -145q190 0 326 46.5t243 150.5l26 -33q-113 -107 -253 -155t-342 -48q-304 0 -475 160.5t-171 433.5zM190 621h1188q-20 234 -173 360.5t-414 126.5 q-263 0 -421 -127t-180 -360z" />
<glyph unicode="f" horiz-adv-x="913" d="M47 1067v39h240v174q0 67 25.5 121t68 87t93 50.5t104.5 17.5q197 0 317 -114l-23 -31q-113 107 -294 107q-103 0 -176.5 -65t-73.5 -177v-170h551v-39h-551v-1067h-41v1067h-240z" />
<glyph unicode="g" horiz-adv-x="1626" d="M145 553q0 268 164 431t455 163q196 0 349 -82.5t235 -230.5v272h41v-1024q0 -172 -78 -293.5t-214 -180.5t-317 -59q-289 0 -512 162l25 33q216 -156 487 -156q267 0 417.5 130t150.5 366v188q-82 -148 -235 -230.5t-349 -82.5q-291 0 -455 163t-164 431zM188 553 q0 -255 154.5 -405t421.5 -150q198 0 348.5 87.5t235.5 250.5v434q-85 163 -235.5 250.5t-348.5 87.5q-267 0 -421.5 -150t-154.5 -405z" />
<glyph unicode="h" horiz-adv-x="1595" d="M238 0v1516h41v-691q75 153 225 237.5t346 84.5q264 0 396 -146t132 -391v-610h-41v610q0 237 -120.5 367.5t-366.5 130.5q-194 0 -341.5 -86t-229.5 -264v-758h-41z" />
<glyph unicode="i" horiz-adv-x="524" d="M211 1358q0 22 14 35.5t37 13.5t37 -13.5t14 -35.5t-14 -35.5t-37 -13.5t-37 13.5t-14 35.5zM246 0v1106h41v-1106h-41z" />
<glyph unicode="j" horiz-adv-x="524" d="M-115 -414l19 33q48 -31 145 -31q91 0 142 61.5t51 164.5v1292h41v-1296q0 -121 -65.5 -191t-168.5 -70q-102 0 -164 37zM211 1358q0 22 14 35.5t37 13.5t37 -13.5t14 -35.5t-14 -35.5t-37 -13.5t-37 13.5t-14 35.5z" />
<glyph unicode="k" horiz-adv-x="1378" d="M238 0v1516h41v-1117l958 707h63l-577 -426l618 -680h-53l-596 655l-413 -305v-350h-41z" />
<glyph unicode="l" horiz-adv-x="532" d="M246 0v1516h41v-1516h-41z" />
<glyph unicode="m" horiz-adv-x="2523" d="M238 0v1106h41v-277q66 147 208 232.5t320 85.5q199 0 314 -95t153 -259q66 169 215 261.5t332 92.5q128 0 223.5 -41.5t151.5 -115.5t83 -167.5t27 -206.5v-616h-41v616q0 227 -109 359.5t-335 132.5q-183 0 -322.5 -95.5t-214.5 -273.5q8 -52 8 -123v-616h-41v616 q0 227 -109 359.5t-335 132.5q-183 0 -317.5 -89.5t-210.5 -258.5v-760h-41z" />
<glyph unicode="n" horiz-adv-x="1595" d="M238 0v1106h41v-281q75 153 225 237.5t346 84.5q264 0 396 -146t132 -391v-610h-41v610q0 237 -120.5 367.5t-366.5 130.5q-194 0 -341.5 -86t-229.5 -264v-758h-41z" />
<glyph unicode="o" horiz-adv-x="1597" d="M145 553q0 273 173.5 433.5t480.5 160.5t480 -160.5t173 -433.5t-173 -433.5t-480 -160.5t-480.5 160.5t-173.5 433.5zM188 553q0 -265 163 -410t448 -145t447.5 145t162.5 410t-162.5 410t-447.5 145t-448 -145t-163 -410z" />
<glyph unicode="p" horiz-adv-x="1626" d="M238 -410v1516h41v-272q83 148 235 230.5t348 82.5q291 0 455 -163t164 -431t-164 -431t-455 -163q-196 0 -348 82.5t-235 230.5v-682h-41zM279 336q86 -161 236.5 -249.5t346.5 -88.5q267 0 421.5 150t154.5 405t-154.5 405t-421.5 150q-196 0 -346.5 -88.5 t-236.5 -249.5v-434z" />
<glyph unicode="q" horiz-adv-x="1626" d="M145 553q0 268 164 431t455 163q196 0 349 -82.5t235 -230.5v272h41v-1516h-41v682q-82 -148 -235 -230.5t-349 -82.5q-291 0 -455 163t-164 431zM188 553q0 -255 154.5 -405t421.5 -150q196 0 347.5 88.5t236.5 249.5v434q-85 161 -236.5 249.5t-347.5 88.5 q-267 0 -421.5 -150t-154.5 -405z" />
<glyph unicode="r" horiz-adv-x="913" d="M238 0v1106h41v-311q65 149 232 238t366 89v-39q-203 0 -364 -93.5t-234 -270.5v-719h-41z" />
<glyph unicode="s" horiz-adv-x="1402" d="M115 213l35 23q178 -238 573 -238q250 0 385 82.5t135 212.5q0 64 -36.5 109.5t-111 75.5t-166.5 47.5t-224 29.5q-79 8 -139.5 16.5t-127 23t-114 35t-87 49t-59.5 68.5t-20 89q0 97 78 169t198.5 107t261.5 35q171 0 302 -53.5t216 -143.5l-32 -26q-166 181 -486 184 h-10q-82 0 -164 -16q-86 -18 -158.5 -50.5t-117.5 -86.5t-45 -119q0 -42 19.5 -76.5t58 -59t84.5 -42.5t110.5 -30.5t123.5 -20.5t136 -15q130 -11 226.5 -31.5t173 -54.5t116 -87.5t39.5 -125.5q0 -145 -149 -239.5t-416 -94.5q-202 0 -360.5 66t-247.5 188z" />
<glyph unicode="t" horiz-adv-x="921" d="M47 1067v39h240v258h41v-258h555v-39h-555v-827q0 -113 76 -177.5t188 -64.5q131 0 276 96l23 -33q-147 -102 -299 -102q-80 0 -147.5 29.5t-112.5 94t-45 153.5v831h-240z" />
<glyph unicode="u" horiz-adv-x="1595" d="M217 496v610h41v-610q0 -237 120.5 -367.5t366.5 -130.5q194 0 342 86t230 264v758h41v-1106h-41v281q-75 -152 -225.5 -237t-346.5 -85q-264 0 -396 146t-132 391z" />
<glyph unicode="v" horiz-adv-x="1400" d="M70 1106h47l585 -1057l584 1057h45l-610 -1106h-41z" />
<glyph unicode="w" horiz-adv-x="1972" d="M90 1106h45l412 -1053l418 1053h45l417 -1053l412 1053h43l-436 -1106h-41l-418 1053l-422 -1053h-41z" />
<glyph unicode="x" horiz-adv-x="1282" d="M76 0l538 553l-538 553h55l510 -524l512 524h53l-538 -553l538 -553h-55l-510 524l-512 -524h-53z" />
<glyph unicode="y" horiz-adv-x="1417" d="M70 1106h47l594 -975l592 975h45l-916 -1516h-49l303 496z" />
<glyph unicode="z" horiz-adv-x="1318" d="M94 -2v33l1036 1036h-1007v39h1069v-33l-1034 -1036h1061v-39h-1125z" />
<glyph unicode="{" horiz-adv-x="864" d="M53 575v39q50 0 96.5 11.5t93 40.5t81 72.5t56 113.5t21.5 158q0 195 77.5 309.5t230.5 114.5h61v-39h-61q-72 0 -124.5 -29t-83 -82t-45 -121t-14.5 -153q0 -101 -28 -181t-75.5 -129t-107.5 -75.5t-129 -28.5q69 -4 128.5 -30.5t107.5 -76t76 -129t28 -180.5 q0 -85 14.5 -153.5t45 -122t83 -82.5t124.5 -29h61v-39h-61q-153 0 -230.5 115.5t-77.5 310.5q0 88 -21.5 158t-56 113.5t-81 72t-93 40t-96.5 11.5z" />
<glyph unicode="|" horiz-adv-x="557" d="M258 -246v1680h41v-1680h-41z" />
<glyph unicode="}" horiz-adv-x="864" d="M94 -207h62q72 0 124.5 29t83 83t44.5 122t14 153q0 101 28 180.5t76 129t107.5 76t128.5 30.5q-69 2 -129 28.5t-107.5 75.5t-75.5 129t-28 181q0 85 -14 153t-44.5 121t-83 82t-124.5 29h-62v39h62q153 0 230 -114.5t77 -309.5q0 -88 21.5 -158t56 -113.5t81 -72.5 t93 -40.5t96.5 -11.5v-39q-50 0 -96.5 -11.5t-93 -40t-81 -72t-56 -113.5t-21.5 -158q0 -196 -77 -311t-230 -115h-62v39z" />
<glyph unicode="~" d="M190 541q80 159 279 159q73 0 155.5 -23t144 -50.5t141 -50.5t147.5 -23q172 0 241 141l39 -20q-80 -160 -278 -160q-73 0 -155.5 23t-144 51t-141 51t-147.5 23q-172 0 -242 -142z" />
<glyph unicode="&#xa1;" horiz-adv-x="550" d="M229 987q0 22 13.5 35.5t36.5 13.5t36 -13.5t13 -35.5t-13 -35.5t-36 -13.5t-36.5 13.5t-13.5 35.5zM254 -410l2 1100h37l2 -1100h-41z" />
<glyph unicode="&#xa2;" horiz-adv-x="1503" d="M156 717q0 249 160 396.5t450 156.5v164h41v-164q363 -3 543 -248l-33 -23q-162 229 -510 232v-1028q353 3 514 237l33 -22q-176 -251 -547 -254v-164h-41v164q-290 9 -450 156.5t-160 396.5zM199 717q0 -241 149.5 -373t417.5 -141v1028q-268 -9 -417.5 -141 t-149.5 -373z" />
<glyph unicode="&#xa3;" horiz-adv-x="1490" d="M129 0v39h231v672h-231v39h231v172q0 110 29.5 207t87.5 175.5t156 124.5t225 46q137 0 260.5 -61.5t190.5 -164.5l-33 -22q-64 95 -179.5 152t-238.5 57q-147 0 -252 -70t-155 -184.5t-50 -259.5v-172h805v-39h-805v-672h924v-39h-965h-231z" />
<glyph unicode="&#xa4;" horiz-adv-x="1642" d="M186 98l211 211q-87 73 -133.5 180.5t-46.5 239.5q0 248 156 395l-187 187l29 28l188 -188q159 131 418 131t418 -131l188 188l29 -28l-186 -187q155 -146 155 -395q0 -132 -46.5 -239.5t-133.5 -180.5l211 -211l-29 -28l-215 215q-159 -109 -391 -109t-391 109 l-215 -215zM260 729q0 -246 153 -380t408 -134t408 134t153 380t-153 380t-408 134t-408 -134t-153 -380z" />
<glyph unicode="&#xa5;" horiz-adv-x="1626" d="M88 1434h53l674 -799l672 799h51l-670 -799h482v-39h-514l-2 -2v-232h516v-38h-516v-324h-41v324h-517v38h517v232l-2 2h-515v39h482z" />
<glyph unicode="&#xa6;" horiz-adv-x="557" d="M258 -246v676h41v-676h-41zM258 766v668h41v-668h-41z" />
<glyph unicode="&#xa7;" horiz-adv-x="1484" d="M145 -33l35 23q178 -238 574 -238q250 0 385 82.5t135 212.5q0 43 -16.5 77.5t-50.5 61t-79 46t-108 34.5t-130.5 25t-154.5 18q-117 11 -206.5 29.5t-171 51.5t-125.5 87t-44 127q0 111 97 192.5t252 116.5q-158 29 -247 88t-89 164q0 97 78 169.5t198.5 107.5t261.5 35 q171 0 302 -53.5t216 -143.5l-32 -27q-167 182 -486 185q-88 1 -174.5 -16.5t-158.5 -50.5t-117 -87t-45 -119q0 -42 19.5 -76.5t58 -58.5t84 -42t110.5 -30.5t124 -20.5t136 -15q130 -11 226.5 -31.5t173 -54.5t116 -87.5t39.5 -125.5q0 -109 -85.5 -192.5t-244.5 -119.5 q318 -67 318 -264q0 -145 -149 -239.5t-416 -94.5q-202 0 -361 66t-248 188zM231 604q0 -63 43 -110t122 -75.5t166.5 -45.5t201.5 -27q84 -7 131 -14q190 21 290.5 100t100.5 191q0 64 -36.5 109.5t-111 75.5t-166.5 47.5t-224 29.5q-29 2 -97 10q-173 -18 -296.5 -97.5 t-123.5 -193.5z" />
<glyph unicode="&#xa8;" horiz-adv-x="1130" d="M262 1688q0 22 13 35.5t36 13.5t36 -13.5t13 -35.5t-13 -36t-36 -14t-36 14t-13 36zM770 1688q0 22 13 35.5t36 13.5t36 -13.5t13 -35.5t-13 -36t-36 -14t-36 14t-13 36z" />
<glyph unicode="&#xa9;" horiz-adv-x="1994" d="M158 717q0 348 222 553t617 205t617.5 -205t222.5 -553t-222.5 -553t-617.5 -205t-617 205t-222 553zM199 717q0 -224 99.5 -388t279 -248.5t419.5 -84.5t420 84.5t279.5 248.5t99.5 388t-99.5 388t-279.5 248.5t-420 84.5t-419.5 -84.5t-279 -248.5t-99.5 -388zM426 719 q0 239 155 379.5t416 140.5q172 0 301.5 -67.5t210.5 -188.5l-32 -22q-74 115 -196.5 177t-283.5 62q-237 0 -382.5 -125.5t-145.5 -355.5t145.5 -355.5t382.5 -125.5q164 0 287 63t197 182l32 -22q-79 -124 -210 -193t-306 -69q-261 0 -416 140.5t-155 379.5z" />
<glyph unicode="&#xaa;" horiz-adv-x="1171" d="M150 936q0 70 38 123t99 82.5t128.5 44t137.5 14.5q131 0 227.5 -49t134.5 -137v96q0 330 -344 330q-194 0 -333 -99l-19 29q65 47 157 76t195 29q180 0 280.5 -92.5t100.5 -270.5v-266q0 -86 43 -148h-41q-39 57 -39 150v10q-38 -88 -134.5 -137t-227.5 -49 q-70 0 -137 14t-129 43.5t-99.5 83t-37.5 123.5zM188 936q0 -65 36 -112.5t94 -71.5t116.5 -34.5t118.5 -10.5q130 0 226 49.5t136 146.5v66q-40 98 -135.5 147t-226.5 49q-60 0 -118.5 -10.5t-116.5 -34.5t-94 -71.5t-36 -112.5z" />
<glyph unicode="&#xab;" horiz-adv-x="1185" d="M125 608l450 -430h56l-451 430l451 430h-56zM512 608l451 -430h55l-451 430l451 430h-55z" />
<glyph unicode="&#xac;" d="M221 588v39h1106v-490h-41v451h-1065z" />
<glyph unicode="&#xad;" horiz-adv-x="1220" d="M201 588v39h819v-39h-819z" />
<glyph unicode="&#xae;" horiz-adv-x="1204" d="M162 1042q0 185 120.5 298.5t319.5 113.5t319.5 -113.5t120.5 -298.5t-120.5 -298t-319.5 -113t-319.5 113t-120.5 298zM203 1042q0 -170 107 -272t292 -102t292 102t107 272t-107.5 272.5t-291.5 102.5t-291.5 -102.5t-107.5 -272.5zM401 827v430h275q73 0 115.5 -35 t42.5 -94q0 -55 -38.5 -90.5t-105.5 -38.5l154 -172h-49l-154 172h-201v-172h-39zM440 1036h219q134 0 134 92q0 93 -134 93h-219v-185z" />
<glyph unicode="&#xaf;" horiz-adv-x="1130" d="M213 1659v39h705v-39h-705z" />
<glyph unicode="&#xb0;" horiz-adv-x="897" d="M150 1176q0 119 83.5 198.5t215.5 79.5t215.5 -79.5t83.5 -198.5t-83.5 -199t-215.5 -80t-215.5 80t-83.5 199zM193 1176q0 -104 69 -172t187 -68t187 68t69 172t-69 171.5t-187 67.5t-187 -67.5t-69 -171.5z" />
<glyph unicode="&#xb1;" d="M209 61v39h1106v-39h-1106zM209 711v39h532v487h41v-487h533v-39h-533v-488h-41v488h-532z" />
<glyph unicode="&#xb2;" horiz-adv-x="946" d="M80 971v28q40 188 409 340q55 23 83.5 35.5t71 33.5t64 37.5t45 39t33 47t9.5 53.5q0 91 -94.5 147t-221.5 56q-118 0 -204.5 -51t-133.5 -140l-37 19q49 97 147 154t230 57q94 0 174 -27.5t131.5 -84t51.5 -130.5q0 -50 -22 -89.5t-70.5 -73.5t-99 -58.5t-134.5 -58.5 q-347 -139 -383 -295h727v-39h-776z" />
<glyph unicode="&#xb3;" horiz-adv-x="989" d="M86 1159l37 15q32 -87 123.5 -138t236.5 -51q158 0 260.5 59t102.5 148q0 102 -98.5 154.5t-262.5 52.5h-94v37h94q91 0 162.5 16.5t119.5 57t48 102.5q0 80 -98 128t-234 48q-125 0 -212.5 -43t-118.5 -119l-37 14q34 87 133.5 137t236.5 50q155 0 264 -58t109 -153 q0 -87 -71.5 -139.5t-168.5 -57.5q39 -4 75 -13t72.5 -27.5t63 -43t43.5 -62t17 -83.5q0 -106 -112.5 -175t-291.5 -69q-159 0 -260.5 57.5t-138.5 155.5z" />
<glyph unicode="&#xb4;" horiz-adv-x="1130" d="M332 1597l397 287h70l-398 -287h-69z" />
<glyph unicode="&#xb6;" horiz-adv-x="1818" d="M111 1006q0 196 139 312t379 116h915v-1434h-41v1395h-370v-1395h-41v575h-463q-240 0 -379 116.5t-139 314.5zM154 1006q0 -181 126 -286.5t349 -105.5h463v781h-463q-223 0 -349 -104.5t-126 -284.5z" />
<glyph unicode="&#xb7;" horiz-adv-x="454" d="M178 571q0 22 13 36t36 14t36 -14t13 -36t-13 -35.5t-36 -13.5t-36 13.5t-13 35.5z" />
<glyph unicode="&#xb8;" horiz-adv-x="1130" d="M330 -395l213 319l32 -22l-213 -320z" />
<glyph unicode="&#xb9;" horiz-adv-x="512" d="M57 1616v39q129 19 260 143h31v-831h-41v772q-108 -102 -250 -123z" />
<glyph unicode="&#xba;" horiz-adv-x="1191" d="M154 1073q0 185 117.5 293.5t324.5 108.5q208 0 325 -108.5t117 -293.5t-116.5 -293t-325.5 -108q-207 0 -324.5 108t-117.5 293zM193 1073q0 -177 106.5 -271.5t296.5 -94.5q191 0 297 94.5t106 271.5t-106 272t-297 95q-190 0 -296.5 -95t-106.5 -272z" />
<glyph unicode="&#xbb;" horiz-adv-x="1185" d="M168 178h55l451 430l-451 430h-55l450 -430zM555 178h55l451 430l-451 430h-55l451 -430z" />
<glyph unicode="&#xbc;" horiz-adv-x="1900" d="M57 1251v39q127 19 260 144h31v-832h-41v772q-108 -102 -250 -123zM340 0l881 1434h47l-881 -1434h-47zM969 227v37l657 567h35v-565h178v-39h-178v-227h-41v227h-651zM1030 266h590v510z" />
<glyph unicode="&#xbd;" horiz-adv-x="1929" d="M57 1251v39q127 19 260 144h31v-832h-41v772q-108 -102 -250 -123zM319 0l881 1434h47l-880 -1434h-48zM1063 0v29q40 188 410 340q48 20 72 30.5t63 29t58.5 31t45 31.5t37 36.5t20.5 39.5t9 47q0 91 -94.5 147t-221.5 56q-118 0 -204.5 -50.5t-133.5 -139.5l-37 18 q49 97 147 154t230 57q94 0 174 -27.5t131.5 -84t51.5 -130.5q0 -50 -22 -89.5t-70.5 -73.5t-99 -58.5t-134.5 -58.5q-347 -139 -383 -295h727v-39h-776z" />
<glyph unicode="&#xbe;" horiz-adv-x="2320" d="M86 791l37 14q32 -87 123.5 -138t236.5 -51q158 0 260.5 59t102.5 148q0 102 -98.5 154.5t-262.5 52.5h-94v37h94q91 0 162.5 16.5t119.5 57t48 102.5q0 80 -98 128t-234 48q-125 0 -212.5 -43t-118.5 -119l-37 15q34 87 133 136.5t237 49.5q155 0 264 -58t109 -153 q0 -87 -71.5 -139t-168.5 -57q49 -5 94 -19.5t86.5 -40.5t66 -70t24.5 -100q0 -106 -112.5 -174.5t-291.5 -68.5q-159 0 -260.5 57.5t-138.5 155.5zM760 0l880 1434h48l-881 -1434h-47zM1389 227v37l657 567h35v-565h178v-39h-178v-227h-41v227h-651zM1450 266h590v510z" />
<glyph unicode="&#xbf;" horiz-adv-x="1484" d="M113 27q0 89 47 160.5t131 119t196.5 74.5t247.5 33v319h41v-352q-177 -4 -316 -45.5t-221.5 -121.5t-82.5 -187q0 -110 79 -192.5t205 -123.5t277 -41q224 0 389.5 90.5t245.5 247.5l39 -18q-78 -162 -257 -260.5t-417 -98.5q-162 0 -298 46t-221 137.5t-85 212.5z M702 1069q0 22 13.5 35.5t36.5 13.5t36 -13.5t13 -35.5t-13 -35.5t-36 -13.5t-36.5 13.5t-13.5 35.5z" />
<glyph unicode="&#xc0;" horiz-adv-x="1794" d="M57 0l817 1434h46l817 -1434h-45l-267 465v-2h-1058l-263 -463h-47zM389 502h1016l-510 891zM575 1884h70l397 -287h-69z" />
<glyph unicode="&#xc1;" horiz-adv-x="1794" d="M57 0l817 1434h46l817 -1434h-45l-267 465v-2h-1058l-263 -463h-47zM389 502h1016l-510 891zM748 1597l397 287h69l-397 -287h-69z" />
<glyph unicode="&#xc2;" horiz-adv-x="1794" d="M57 0l817 1434h46l817 -1434h-45l-267 465v-2h-1058l-263 -463h-47zM389 502h1016l-510 891zM539 1597l331 287h50l331 -287h-55l-301 254l-301 -254h-55z" />
<glyph unicode="&#xc3;" horiz-adv-x="1794" d="M57 0l817 1434h46l817 -1434h-45l-267 465v-2h-1058l-263 -463h-47zM389 502h1016l-510 891zM457 1700q34 68 93 114t144 46q56 0 112 -23.5t94.5 -51.5t92 -51.5t105.5 -23.5q133 0 202 141l33 -18q-34 -68 -93 -114t-144 -46q-56 0 -112 23.5t-94.5 51.5t-92 51.5 t-105.5 23.5q-133 0 -203 -142z" />
<glyph unicode="&#xc4;" horiz-adv-x="1794" d="M57 0l817 1434h46l817 -1434h-45l-267 465v-2h-1058l-263 -463h-47zM389 502h1016l-510 891zM592 1688q0 22 13 35.5t36 13.5t36 -13.5t13 -35.5t-13 -36t-36 -14t-36 14t-13 36zM1100 1688q0 22 13 35.5t36 13.5t36 -13.5t13 -35.5t-13 -36t-36 -14t-36 14t-13 36z" />
<glyph unicode="&#xc5;" horiz-adv-x="1794" d="M57 0l817 1434h46l817 -1434h-45l-267 465v-2h-1058l-263 -463h-47zM389 502h1016l-510 891zM668 1792q0 98 66.5 150.5t160.5 52.5t160.5 -52.5t66.5 -150.5t-66.5 -150.5t-160.5 -52.5t-160.5 52.5t-66.5 150.5zM711 1792q0 -83 53 -123.5t131 -40.5t131 40.5t53 123.5 t-53 123.5t-131 40.5t-131 -40.5t-53 -123.5z" />
<glyph unicode="&#xc6;" horiz-adv-x="2785" d="M4 0l1313 1434h41h1263v-39h-1249v-645h1086v-39h-1086v-672h1270v-39h-1311v430h-882l-394 -430h-51zM485 469h846v924z" />
<glyph unicode="&#xc7;" horiz-adv-x="1816" d="M158 717q0 347 222.5 552.5t616.5 205.5q483 0 699 -314l-37 -20q-207 295 -662 295q-241 0 -419.5 -83.5t-277.5 -247t-99 -388.5t99 -388.5t277.5 -247t419.5 -83.5q455 0 662 295l37 -21q-215 -313 -699 -313q-394 0 -616.5 205.5t-222.5 552.5zM750 -395l213 319 l32 -22l-213 -320z" />
<glyph unicode="&#xc8;" horiz-adv-x="1728" d="M274 0v1434h1291v-39h-1250v-645h1086v-39h-1086v-672h1270v-39h-1311zM592 1884h70l397 -287h-70z" />
<glyph unicode="&#xc9;" horiz-adv-x="1728" d="M274 0v1434h1291v-39h-1250v-645h1086v-39h-1086v-672h1270v-39h-1311zM764 1597l397 287h70l-397 -287h-70z" />
<glyph unicode="&#xca;" horiz-adv-x="1728" d="M274 0v1434h1291v-39h-1250v-645h1086v-39h-1086v-672h1270v-39h-1311zM555 1597h55l301 254l301 -254h56l-332 287h-49z" />
<glyph unicode="&#xcb;" horiz-adv-x="1728" d="M274 0v1434h1291v-39h-1250v-645h1086v-39h-1086v-672h1270v-39h-1311zM608 1688q0 22 13 35.5t36 13.5t36.5 -13.5t13.5 -35.5t-13.5 -36t-36.5 -14t-36 14t-13 36zM1116 1688q0 22 13 35.5t36 13.5t36 -13.5t13 -35.5t-13 -36t-36 -14t-36 14t-13 36z" />
<glyph unicode="&#xcc;" horiz-adv-x="589" d="M-25 1884h70l397 -287h-69zM274 0v1434h41v-1434h-41z" />
<glyph unicode="&#xcd;" horiz-adv-x="589" d="M147 1597l398 287h69l-397 -287h-70zM274 0v1434h41v-1434h-41z" />
<glyph unicode="&#xce;" horiz-adv-x="589" d="M-61 1597h55l301 254l301 -254h55l-332 287h-49zM274 0v1434h41v-1434h-41z" />
<glyph unicode="&#xcf;" horiz-adv-x="589" d="M-8 1688q0 22 13 35.5t36 13.5t36 -13.5t13 -35.5t-13 -36t-36 -14t-36 14t-13 36zM274 0v1434h41v-1434h-41zM500 1688q0 22 13 35.5t36 13.5t36 -13.5t13 -35.5t-13 -36t-36 -14t-36 14t-13 36z" />
<glyph unicode="&#xd0;" horiz-adv-x="1921" d="M57 711v39h228v684h639q384 0 611.5 -195t227.5 -522t-227.5 -522t-611.5 -195h-639v711h-228zM326 39h598q232 0 410.5 77.5t282 232.5t103.5 368t-103.5 368t-282 232.5t-410.5 77.5h-598v-645h514v-39h-514v-672z" />
<glyph unicode="&#xd1;" horiz-adv-x="1982" d="M274 0v1434h50l1343 -1371v1371h41v-1434h-37l-1356 1382v-1382h-41zM557 1700q34 68 93.5 114t144.5 46q56 0 112 -23.5t94 -51.5t91.5 -51.5t105.5 -23.5q134 0 203 141l33 -18q-34 -68 -93.5 -114t-144.5 -46q-56 0 -112 23.5t-94 51.5t-91.5 51.5t-105.5 23.5 q-133 0 -203 -142z" />
<glyph unicode="&#xd2;" horiz-adv-x="1994" d="M158 717q0 348 222 553t617 205t617.5 -205t222.5 -553t-222.5 -553t-617.5 -205t-617 205t-222 553zM201 717q0 -224 99 -387.5t278 -247.5t419 -84q365 0 581 191t216 528t-216 528t-581 191q-240 0 -419 -84t-278 -247.5t-99 -387.5zM678 1884h70l397 -287h-70z" />
<glyph unicode="&#xd3;" horiz-adv-x="1994" d="M158 717q0 348 222 553t617 205t617.5 -205t222.5 -553t-222.5 -553t-617.5 -205t-617 205t-222 553zM201 717q0 -224 99 -387.5t278 -247.5t419 -84q365 0 581 191t216 528t-216 528t-581 191q-240 0 -419 -84t-278 -247.5t-99 -387.5zM850 1597l397 287h70l-397 -287 h-70z" />
<glyph unicode="&#xd4;" horiz-adv-x="1994" d="M158 717q0 348 222 553t617 205t617.5 -205t222.5 -553t-222.5 -553t-617.5 -205t-617 205t-222 553zM201 717q0 -224 99 -387.5t278 -247.5t419 -84q365 0 581 191t216 528t-216 528t-581 191q-240 0 -419 -84t-278 -247.5t-99 -387.5zM641 1597h55l301 254l301 -254h56 l-332 287h-49z" />
<glyph unicode="&#xd5;" horiz-adv-x="1994" d="M158 717q0 348 222 553t617 205t617.5 -205t222.5 -553t-222.5 -553t-617.5 -205t-617 205t-222 553zM201 717q0 -224 99 -387.5t278 -247.5t419 -84q365 0 581 191t216 528t-216 528t-581 191q-240 0 -419 -84t-278 -247.5t-99 -387.5zM559 1700q34 68 93.5 114 t144.5 46q56 0 112 -23.5t94 -51.5t91.5 -51.5t105.5 -23.5q134 0 203 141l33 -18q-34 -68 -93.5 -114t-144.5 -46q-56 0 -112 23.5t-94 51.5t-91.5 51.5t-105.5 23.5q-133 0 -203 -142z" />
<glyph unicode="&#xd6;" horiz-adv-x="1994" d="M158 717q0 348 222 553t617 205t617.5 -205t222.5 -553t-222.5 -553t-617.5 -205t-617 205t-222 553zM201 717q0 -224 99 -387.5t278 -247.5t419 -84q365 0 581 191t216 528t-216 528t-581 191q-240 0 -419 -84t-278 -247.5t-99 -387.5zM694 1688q0 22 13 35.5t36 13.5 t36.5 -13.5t13.5 -35.5t-13.5 -36t-36.5 -14t-36 14t-13 36zM1202 1688q0 22 13 35.5t36 13.5t36 -13.5t13 -35.5t-13 -36t-36 -14t-36 14t-13 36z" />
<glyph unicode="&#xd7;" d="M311 188l422 422l-422 422l29 29l422 -422l422 422l28 -29l-421 -422l421 -422l-28 -28l-422 422l-422 -422z" />
<glyph unicode="&#xd8;" horiz-adv-x="1994" d="M158 717q0 348 222 553t617 205q293 0 498 -117l211 260h49l-227 -281q151 -98 230 -256.5t79 -363.5q0 -348 -222.5 -553t-617.5 -205q-292 0 -497 117l-211 -260h-49l227 280q-151 98 -230 257t-79 364zM201 717q0 -197 76.5 -346.5t218.5 -241.5l970 1196 q-196 111 -469 111q-240 0 -419 -84t-278 -247.5t-99 -387.5zM528 109q196 -111 469 -111q365 0 581 191t216 528q0 197 -76.5 346.5t-218.5 241.5z" />
<glyph unicode="&#xd9;" horiz-adv-x="1921" d="M244 676v758h41v-758q0 -309 180.5 -493.5t495.5 -184.5t495 184.5t180 493.5v758h41v-758q0 -154 -46.5 -284.5t-134.5 -227t-225 -151t-310 -54.5t-310 54.5t-225.5 151t-135 227t-46.5 284.5zM641 1884h70l397 -287h-70z" />
<glyph unicode="&#xda;" horiz-adv-x="1921" d="M244 676v758h41v-758q0 -309 180.5 -493.5t495.5 -184.5t495 184.5t180 493.5v758h41v-758q0 -154 -46.5 -284.5t-134.5 -227t-225 -151t-310 -54.5t-310 54.5t-225.5 151t-135 227t-46.5 284.5zM813 1597l397 287h70l-397 -287h-70z" />
<glyph unicode="&#xdb;" horiz-adv-x="1921" d="M244 676v758h41v-758q0 -309 180.5 -493.5t495.5 -184.5t495 184.5t180 493.5v758h41v-758q0 -154 -46.5 -284.5t-134.5 -227t-225 -151t-310 -54.5t-310 54.5t-225.5 151t-135 227t-46.5 284.5zM604 1597h55l302 254l301 -254h55l-332 287h-49z" />
<glyph unicode="&#xdc;" horiz-adv-x="1921" d="M244 676v758h41v-758q0 -309 180.5 -493.5t495.5 -184.5t495 184.5t180 493.5v758h41v-758q0 -154 -46.5 -284.5t-134.5 -227t-225 -151t-310 -54.5t-310 54.5t-225.5 151t-135 227t-46.5 284.5zM657 1688q0 22 13.5 35.5t36.5 13.5t36 -13.5t13 -35.5t-13 -36t-36 -14 t-36.5 14t-13.5 36zM1165 1688q0 22 13 35.5t36 13.5t36.5 -13.5t13.5 -35.5t-13.5 -36t-36.5 -14t-36 14t-13 36z" />
<glyph unicode="&#xdd;" horiz-adv-x="1654" d="M61 1434h54l714 -881l713 881h51l-745 -922v-512h-41v512zM682 1597l397 287h70l-397 -287h-70z" />
<glyph unicode="&#xde;" horiz-adv-x="1818" d="M274 0v1434h41v-273h875q240 0 379 -116t139 -312q0 -197 -139 -313.5t-379 -116.5h-875v-303h-41zM315 342h875q223 0 349 105t126 286q0 180 -126 284.5t-349 104.5h-875v-780z" />
<glyph unicode="&#xdf;" horiz-adv-x="1560" d="M238 0v989q0 164 64.5 290.5t198 201.5t318.5 75q105 0 197.5 -24.5t164 -71.5t113 -121.5t41.5 -167.5q0 -140 -88 -235t-243 -123q84 -7 157 -35.5t131 -78t91.5 -126t33.5 -170.5q0 -195 -138 -309t-374 -114q-185 0 -362 61l16 35q180 -58 346 -58q219 0 344 103 t125 282t-125.5 281t-349.5 102h-178v39h96q223 0 349 93.5t126 252.5q0 85 -38 152t-103.5 109t-150 64t-181.5 22q-131 0 -235 -40t-170 -111.5t-100.5 -167.5t-34.5 -210v-989h-41z" />
<glyph unicode="&#xe0;" d="M119 350q0 83 37.5 151t98 111.5t139.5 73.5t158.5 42.5t158.5 12.5q192 0 345.5 -73t207.5 -199v139q0 243 -133 371.5t-390 128.5q-147 0 -274.5 -41t-222.5 -109l-23 33q96 70 232 113t288 43q266 0 415 -137t149 -400v-391q0 -124 53 -219h-45q-49 87 -49 221v10 q-54 -125 -208 -198.5t-345 -73.5q-79 0 -158.5 12.5t-158.5 42.5t-139.5 73.5t-98 111.5t-37.5 151zM162 350q0 -78 37 -140.5t94 -101t132 -64.5t146 -36t140 -10q190 0 342.5 77.5t210.5 219.5v111q-58 143 -210 219.5t-343 76.5q-69 0 -140 -10t-146 -36t-132 -64.5 t-94 -101t-37 -140.5zM438 1556h70l397 -286h-69z" />
<glyph unicode="&#xe1;" d="M119 350q0 83 37.5 151t98 111.5t139.5 73.5t158.5 42.5t158.5 12.5q192 0 345.5 -73t207.5 -199v139q0 243 -133 371.5t-390 128.5q-147 0 -274.5 -41t-222.5 -109l-23 33q96 70 232 113t288 43q266 0 415 -137t149 -400v-391q0 -124 53 -219h-45q-49 87 -49 221v10 q-54 -125 -208 -198.5t-345 -73.5q-79 0 -158.5 12.5t-158.5 42.5t-139.5 73.5t-98 111.5t-37.5 151zM162 350q0 -78 37 -140.5t94 -101t132 -64.5t146 -36t140 -10q190 0 342.5 77.5t210.5 219.5v111q-58 143 -210 219.5t-343 76.5q-69 0 -140 -10t-146 -36t-132 -64.5 t-94 -101t-37 -140.5zM610 1270l398 286h69l-397 -286h-70z" />
<glyph unicode="&#xe2;" d="M119 350q0 83 37.5 151t98 111.5t139.5 73.5t158.5 42.5t158.5 12.5q192 0 345.5 -73t207.5 -199v139q0 243 -133 371.5t-390 128.5q-147 0 -274.5 -41t-222.5 -109l-23 33q96 70 232 113t288 43q266 0 415 -137t149 -400v-391q0 -124 53 -219h-45q-49 87 -49 221v10 q-54 -125 -208 -198.5t-345 -73.5q-79 0 -158.5 12.5t-158.5 42.5t-139.5 73.5t-98 111.5t-37.5 151zM162 350q0 -78 37 -140.5t94 -101t132 -64.5t146 -36t140 -10q190 0 342.5 77.5t210.5 219.5v111q-58 143 -210 219.5t-343 76.5q-69 0 -140 -10t-146 -36t-132 -64.5 t-94 -101t-37 -140.5zM401 1270h56l301 254l301 -254h55l-332 286h-49z" />
<glyph unicode="&#xe3;" d="M119 350q0 83 37.5 151t98 111.5t139.5 73.5t158.5 42.5t158.5 12.5q192 0 345.5 -73t207.5 -199v139q0 243 -133 371.5t-390 128.5q-147 0 -274.5 -41t-222.5 -109l-23 33q96 70 232 113t288 43q266 0 415 -137t149 -400v-391q0 -124 53 -219h-45q-49 87 -49 221v10 q-54 -125 -208 -198.5t-345 -73.5q-79 0 -158.5 12.5t-158.5 42.5t-139.5 73.5t-98 111.5t-37.5 151zM162 350q0 -78 37 -140.5t94 -101t132 -64.5t146 -36t140 -10q190 0 342.5 77.5t210.5 219.5v111q-58 143 -210 219.5t-343 76.5q-69 0 -140 -10t-146 -36t-132 -64.5 t-94 -101t-37 -140.5zM319 1372q34 68 93.5 114t144.5 46q56 0 112 -23.5t94.5 -51.5t92 -51.5t105.5 -23.5q132 0 202 142l33 -19q-34 -68 -93.5 -113.5t-144.5 -45.5q-56 0 -112 23.5t-94 51t-91.5 51t-105.5 23.5q-134 0 -203 -141z" />
<glyph unicode="&#xe4;" d="M119 350q0 83 37.5 151t98 111.5t139.5 73.5t158.5 42.5t158.5 12.5q192 0 345.5 -73t207.5 -199v139q0 243 -133 371.5t-390 128.5q-147 0 -274.5 -41t-222.5 -109l-23 33q96 70 232 113t288 43q266 0 415 -137t149 -400v-391q0 -124 53 -219h-45q-49 87 -49 221v10 q-54 -125 -208 -198.5t-345 -73.5q-79 0 -158.5 12.5t-158.5 42.5t-139.5 73.5t-98 111.5t-37.5 151zM162 350q0 -78 37 -140.5t94 -101t132 -64.5t146 -36t140 -10q190 0 342.5 77.5t210.5 219.5v111q-58 143 -210 219.5t-343 76.5q-69 0 -140 -10t-146 -36t-132 -64.5 t-94 -101t-37 -140.5zM455 1360q0 22 13 35.5t36 13.5t36 -13.5t13 -35.5t-13 -35.5t-36 -13.5t-36 13.5t-13 35.5zM963 1360q0 22 13 35.5t36 13.5t36 -13.5t13 -35.5t-13 -35.5t-36 -13.5t-36 13.5t-13 35.5z" />
<glyph unicode="&#xe5;" d="M119 350q0 83 37.5 151t98 111.5t139.5 73.5t158.5 42.5t158.5 12.5q192 0 345.5 -73t207.5 -199v139q0 243 -133 371.5t-390 128.5q-147 0 -274.5 -41t-222.5 -109l-23 33q96 70 232 113t288 43q266 0 415 -137t149 -400v-391q0 -124 53 -219h-45q-49 87 -49 221v10 q-54 -125 -208 -198.5t-345 -73.5q-79 0 -158.5 12.5t-158.5 42.5t-139.5 73.5t-98 111.5t-37.5 151zM162 350q0 -78 37 -140.5t94 -101t132 -64.5t146 -36t140 -10q190 0 342.5 77.5t210.5 219.5v111q-58 143 -210 219.5t-343 76.5q-69 0 -140 -10t-146 -36t-132 -64.5 t-94 -101t-37 -140.5zM530 1464q0 98 67 150.5t161 52.5t160.5 -52.5t66.5 -150.5t-66.5 -150t-160.5 -52t-161 52t-67 150zM573 1464q0 -83 53.5 -123.5t131.5 -40.5t131 40.5t53 123.5t-53 123.5t-131 40.5t-131.5 -40.5t-53.5 -123.5z" />
<glyph unicode="&#xe6;" horiz-adv-x="2643" d="M119 350q0 83 37.5 151t98 111.5t140 73.5t159.5 42.5t161 12.5q128 0 238.5 -32t192.5 -95t118 -149v143q0 243 -133 371.5t-390 128.5q-147 0 -274.5 -41t-222.5 -109l-23 33q96 70 232 113t288 43q212 0 351 -87t188 -257q65 163 219.5 253.5t380.5 90.5 q293 0 457.5 -150t175.5 -411v-4h-39h-1169v-224q52 -174 201 -267t374 -93q190 0 326 46.5t243 150.5l27 -33q-113 -107 -253.5 -155t-342.5 -48q-218 0 -370 85t-222 239q-30 -85 -90.5 -149.5t-139 -101.5t-164.5 -55t-179 -18q-81 0 -161 12.5t-159.5 42.5t-140 73.5 t-98 111.5t-37.5 151zM162 350q0 -78 37 -140.5t94.5 -101t133 -64.5t146.5 -36t142 -10q192 0 341.5 77t207.5 220v111q-58 144 -207 220t-342 76q-71 0 -142 -10t-146.5 -36t-133 -64.5t-94.5 -101t-37 -140.5zM1296 719q9 -46 9 -98h1163q-20 234 -173 360.5t-415 126.5 q-233 0 -385 -100.5t-199 -288.5z" />
<glyph unicode="&#xe7;" horiz-adv-x="1474" d="M145 553q0 273 173.5 433.5t480.5 160.5q190 0 332 -65t221 -183l-33 -22q-73 113 -206.5 172t-313.5 59q-285 0 -448 -145t-163 -410t163 -410t448 -145q182 0 316.5 60.5t207.5 177.5l33 -23q-77 -121 -220.5 -187.5t-336.5 -66.5q-307 0 -480.5 160.5t-173.5 433.5z M547 -395l213 319l33 -22l-213 -320z" />
<glyph unicode="&#xe8;" horiz-adv-x="1554" d="M145 553q0 273 171 433.5t475 160.5q293 0 457 -150t175 -411v-4h-39h-1196v-29q0 -265 160.5 -410t442.5 -145q190 0 326 46.5t243 150.5l26 -33q-113 -107 -253 -155t-342 -48q-304 0 -475 160.5t-171 433.5zM190 621h1188q-20 234 -173 360.5t-414 126.5 q-263 0 -421 -127t-180 -360zM471 1556h70l397 -286h-70z" />
<glyph unicode="&#xe9;" horiz-adv-x="1554" d="M145 553q0 273 171 433.5t475 160.5q293 0 457 -150t175 -411v-4h-39h-1196v-29q0 -265 160.5 -410t442.5 -145q190 0 326 46.5t243 150.5l26 -33q-113 -107 -253 -155t-342 -48q-304 0 -475 160.5t-171 433.5zM190 621h1188q-20 234 -173 360.5t-414 126.5 q-263 0 -421 -127t-180 -360zM643 1270l397 286h70l-397 -286h-70z" />
<glyph unicode="&#xea;" horiz-adv-x="1554" d="M145 553q0 273 171 433.5t475 160.5q293 0 457 -150t175 -411v-4h-39h-1196v-29q0 -265 160.5 -410t442.5 -145q190 0 326 46.5t243 150.5l26 -33q-113 -107 -253 -155t-342 -48q-304 0 -475 160.5t-171 433.5zM190 621h1188q-20 234 -173 360.5t-414 126.5 q-263 0 -421 -127t-180 -360zM434 1270l332 286h49l332 -286h-55l-301 254l-302 -254h-55z" />
<glyph unicode="&#xeb;" horiz-adv-x="1554" d="M145 553q0 273 171 433.5t475 160.5q293 0 457 -150t175 -411v-4h-39h-1196v-29q0 -265 160.5 -410t442.5 -145q190 0 326 46.5t243 150.5l26 -33q-113 -107 -253 -155t-342 -48q-304 0 -475 160.5t-171 433.5zM190 621h1188q-20 234 -173 360.5t-414 126.5 q-263 0 -421 -127t-180 -360zM487 1360q0 22 13.5 35.5t36.5 13.5t36 -13.5t13 -35.5t-13 -35.5t-36 -13.5t-36.5 13.5t-13.5 35.5zM995 1360q0 22 13 35.5t36 13.5t36.5 -13.5t13.5 -35.5t-13.5 -35.5t-36.5 -13.5t-36 13.5t-13 35.5z" />
<glyph unicode="&#xec;" horiz-adv-x="532" d="M-53 1556h69l398 -286h-70zM246 0v1106h41v-1106h-41z" />
<glyph unicode="&#xed;" horiz-adv-x="532" d="M119 1270l397 286h70l-398 -286h-69zM246 0v1106h41v-1106h-41z" />
<glyph unicode="&#xee;" horiz-adv-x="532" d="M-90 1270h55l301 254l301 -254h56l-332 286h-49zM246 0v1106h41v-1106h-41z" />
<glyph unicode="&#xef;" horiz-adv-x="532" d="M-37 1360q0 22 13 35.5t36 13.5t36 -13.5t13 -35.5t-13 -35.5t-36 -13.5t-36 13.5t-13 35.5zM246 0v1106h41v-1106h-41zM471 1360q0 22 13 35.5t36 13.5t36 -13.5t13 -35.5t-13 -35.5t-36 -13.5t-36 13.5t-13 35.5z" />
<glyph unicode="&#xf0;" horiz-adv-x="1593" d="M141 541q0 271 173.5 426t480.5 155q66 0 130.5 -8.5t138.5 -32.5t135 -60.5t114 -98t82 -140.5q-116 401 -514 584l-308 -117l-14 37l270 103q-164 66 -364 100l6 39q231 -41 412 -119l299 115l14 -37l-262 -101q514 -253 514 -845q0 -271 -173.5 -426.5t-479.5 -155.5 q-307 0 -480.5 155.5t-173.5 426.5zM180 541q0 -263 163 -403t448 -140t447.5 140t162.5 403t-162.5 402.5t-447.5 139.5t-448 -140t-163 -402z" />
<glyph unicode="&#xf1;" horiz-adv-x="1595" d="M238 0v1106h41v-281q75 153 225 237.5t346 84.5q264 0 396 -146t132 -391v-610h-41v610q0 237 -120.5 367.5t-366.5 130.5q-194 0 -341.5 -86t-229.5 -264v-758h-41zM367 1372q34 68 93 114t144 46q56 0 112 -23.5t94.5 -51.5t92 -51.5t105.5 -23.5q132 0 202 142l33 -19 q-34 -68 -93 -113.5t-144 -45.5q-56 0 -112 23.5t-94.5 51t-92 51t-105.5 23.5q-134 0 -203 -141z" />
<glyph unicode="&#xf2;" horiz-adv-x="1597" d="M145 553q0 273 173.5 433.5t480.5 160.5t480 -160.5t173 -433.5t-173 -433.5t-480 -160.5t-480.5 160.5t-173.5 433.5zM188 553q0 -265 163 -410t448 -145t447.5 145t162.5 410t-162.5 410t-447.5 145t-448 -145t-163 -410zM479 1556h70l397 -286h-69z" />
<glyph unicode="&#xf3;" horiz-adv-x="1597" d="M145 553q0 273 173.5 433.5t480.5 160.5t480 -160.5t173 -433.5t-173 -433.5t-480 -160.5t-480.5 160.5t-173.5 433.5zM188 553q0 -265 163 -410t448 -145t447.5 145t162.5 410t-162.5 410t-447.5 145t-448 -145t-163 -410zM651 1270l398 286h69l-397 -286h-70z" />
<glyph unicode="&#xf4;" horiz-adv-x="1597" d="M145 553q0 273 173.5 433.5t480.5 160.5t480 -160.5t173 -433.5t-173 -433.5t-480 -160.5t-480.5 160.5t-173.5 433.5zM188 553q0 -265 163 -410t448 -145t447.5 145t162.5 410t-162.5 410t-447.5 145t-448 -145t-163 -410zM442 1270h56l301 254l301 -254h55l-332 286 h-49z" />
<glyph unicode="&#xf5;" horiz-adv-x="1597" d="M145 553q0 273 173.5 433.5t480.5 160.5t480 -160.5t173 -433.5t-173 -433.5t-480 -160.5t-480.5 160.5t-173.5 433.5zM188 553q0 -265 163 -410t448 -145t447.5 145t162.5 410t-162.5 410t-447.5 145t-448 -145t-163 -410zM360 1372q34 68 93.5 114t144.5 46 q56 0 112 -23.5t94 -51.5t91.5 -51.5t105.5 -23.5q133 0 203 142l33 -19q-34 -68 -93.5 -113.5t-144.5 -45.5q-56 0 -112 23.5t-94 51t-91.5 51t-105.5 23.5q-134 0 -203 -141z" />
<glyph unicode="&#xf6;" horiz-adv-x="1597" d="M145 553q0 273 173.5 433.5t480.5 160.5t480 -160.5t173 -433.5t-173 -433.5t-480 -160.5t-480.5 160.5t-173.5 433.5zM188 553q0 -265 163 -410t448 -145t447.5 145t162.5 410t-162.5 410t-447.5 145t-448 -145t-163 -410zM496 1360q0 22 13 35.5t36 13.5t36 -13.5 t13 -35.5t-13 -35.5t-36 -13.5t-36 13.5t-13 35.5zM1004 1360q0 22 13 35.5t36 13.5t36 -13.5t13 -35.5t-13 -35.5t-36 -13.5t-36 13.5t-13 35.5z" />
<glyph unicode="&#xf7;" d="M209 588v39h1106v-39h-1106zM713 240q0 22 13 35.5t36 13.5t36 -13.5t13 -35.5t-13 -36t-36 -14t-36 14t-13 36zM713 979q0 22 13 35.5t36 13.5t36 -13.5t13 -35.5t-13 -35.5t-36 -13.5t-36 13.5t-13 35.5z" />
<glyph unicode="&#xf8;" horiz-adv-x="1597" d="M145 553q0 273 173.5 433.5t480.5 160.5q191 0 340 -68l145 211h45l-158 -227q136 -73 208.5 -205t72.5 -305q0 -273 -173 -433.5t-480 -160.5q-191 0 -340 68l-146 -211h-45l158 227q-136 73 -208.5 205t-72.5 305zM188 553q0 -167 67 -288.5t191 -188.5l670 971 q-131 61 -317 61q-285 0 -448 -145t-163 -410zM481 59q131 -61 318 -61q285 0 447.5 145t162.5 410q0 167 -67 288.5t-191 188.5z" />
<glyph unicode="&#xf9;" horiz-adv-x="1595" d="M217 496v610h41v-610q0 -237 120.5 -367.5t366.5 -130.5q194 0 342 86t230 264v758h41v-1106h-41v281q-75 -152 -225.5 -237t-346.5 -85q-264 0 -396 146t-132 391zM457 1556h69l398 -286h-70z" />
<glyph unicode="&#xfa;" horiz-adv-x="1595" d="M217 496v610h41v-610q0 -237 120.5 -367.5t366.5 -130.5q194 0 342 86t230 264v758h41v-1106h-41v281q-75 -152 -225.5 -237t-346.5 -85q-264 0 -396 146t-132 391zM629 1270l397 286h70l-398 -286h-69z" />
<glyph unicode="&#xfb;" horiz-adv-x="1595" d="M217 496v610h41v-610q0 -237 120.5 -367.5t366.5 -130.5q194 0 342 86t230 264v758h41v-1106h-41v281q-75 -152 -225.5 -237t-346.5 -85q-264 0 -396 146t-132 391zM420 1270h55l301 254l301 -254h56l-332 286h-49z" />
<glyph unicode="&#xfc;" horiz-adv-x="1595" d="M217 496v610h41v-610q0 -237 120.5 -367.5t366.5 -130.5q194 0 342 86t230 264v758h41v-1106h-41v281q-75 -152 -225.5 -237t-346.5 -85q-264 0 -396 146t-132 391zM473 1360q0 22 13 35.5t36 13.5t36 -13.5t13 -35.5t-13 -35.5t-36 -13.5t-36 13.5t-13 35.5zM981 1360 q0 22 13 35.5t36 13.5t36 -13.5t13 -35.5t-13 -35.5t-36 -13.5t-36 13.5t-13 35.5z" />
<glyph unicode="&#xfd;" horiz-adv-x="1417" d="M70 1106h47l594 -975l592 975h45l-916 -1516h-49l303 496zM561 1270l397 286h70l-397 -286h-70z" />
<glyph unicode="&#xfe;" horiz-adv-x="1626" d="M238 -410v1926h41v-682q83 148 235 230.5t348 82.5q291 0 455 -163t164 -431t-164 -431t-455 -163q-196 0 -348 82.5t-235 230.5v-682h-41zM279 336q86 -161 236.5 -249.5t346.5 -88.5q267 0 421.5 150t154.5 405t-154.5 405t-421.5 150q-196 0 -346.5 -88.5 t-236.5 -249.5v-434z" />
<glyph unicode="&#xff;" horiz-adv-x="1417" d="M70 1106h47l594 -975l592 975h45l-916 -1516h-49l303 496zM406 1360q0 22 13 35.5t36 13.5t36 -13.5t13 -35.5t-13 -35.5t-36 -13.5t-36 13.5t-13 35.5zM913 1360q0 22 13.5 35.5t36.5 13.5t36 -13.5t13 -35.5t-13 -35.5t-36 -13.5t-36.5 13.5t-13.5 35.5z" />
<glyph unicode="&#x152;" horiz-adv-x="2959" d="M158 717q0 327 227.5 522t611.5 195h549h1250v-39h-1250v-645h1086v-39h-1086v-672h1270v-39h-1311h-508q-384 0 -611.5 195t-227.5 522zM201 717q0 -213 103.5 -368t282 -232.5t410.5 -77.5h508v1356h-508q-232 0 -410.5 -77.5t-282 -232.5t-103.5 -368z" />
<glyph unicode="&#x153;" horiz-adv-x="2801" d="M145 553q0 273 171 433.5t475 160.5q250 0 411 -110t213 -306q50 196 211.5 306t411.5 110q293 0 457.5 -150t175.5 -411v-4h-39h-1196v-29q0 -265 160 -410t442 -145q190 0 326 46.5t243 150.5l27 -33q-113 -107 -253.5 -155t-342.5 -48q-250 0 -411.5 110t-211.5 306 q-52 -196 -213 -306t-411 -110q-304 0 -475 160.5t-171 433.5zM188 553q0 -265 160.5 -410t442.5 -145t442 145t160 410t-160 410t-442 145t-442.5 -145t-160.5 -410zM1438 621h1188q-20 234 -173 360.5t-415 126.5q-263 0 -420.5 -127t-179.5 -360z" />
<glyph unicode="&#x178;" horiz-adv-x="1654" d="M61 1434h54l714 -881l713 881h51l-745 -922v-512h-41v512zM526 1688q0 22 13 35.5t36 13.5t36.5 -13.5t13.5 -35.5t-13.5 -36t-36.5 -14t-36 14t-13 36zM1034 1688q0 22 13 35.5t36 13.5t36.5 -13.5t13.5 -35.5t-13.5 -36t-36.5 -14t-36 14t-13 36z" />
<glyph unicode="&#x2c6;" horiz-adv-x="1130" d="M209 1597h55l301 254l301 -254h56l-332 287h-49z" />
<glyph unicode="&#x2dc;" horiz-adv-x="1130" d="M127 1700q34 68 93.5 114t144.5 46q56 0 112 -23.5t94 -51.5t91.5 -51.5t105.5 -23.5q134 0 203 141l33 -18q-34 -68 -93.5 -114t-144.5 -46q-56 0 -112 23.5t-94.5 51.5t-92 51.5t-105.5 23.5q-132 0 -202 -142z" />
<glyph unicode="&#x2000;" horiz-adv-x="997" />
<glyph unicode="&#x2001;" horiz-adv-x="1995" />
<glyph unicode="&#x2002;" horiz-adv-x="997" />
<glyph unicode="&#x2003;" horiz-adv-x="1995" />
<glyph unicode="&#x2004;" horiz-adv-x="665" />
<glyph unicode="&#x2005;" horiz-adv-x="498" />
<glyph unicode="&#x2006;" horiz-adv-x="332" />
<glyph unicode="&#x2007;" horiz-adv-x="332" />
<glyph unicode="&#x2008;" horiz-adv-x="249" />
<glyph unicode="&#x2009;" horiz-adv-x="399" />
<glyph unicode="&#x200a;" horiz-adv-x="110" />
<glyph unicode="&#x2010;" horiz-adv-x="1220" d="M201 588v39h819v-39h-819z" />
<glyph unicode="&#x2011;" horiz-adv-x="1220" d="M201 588v39h819v-39h-819z" />
<glyph unicode="&#x2012;" horiz-adv-x="1220" d="M201 588v39h819v-39h-819z" />
<glyph unicode="&#x2013;" horiz-adv-x="1630" d="M201 588v39h1229v-39h-1229z" />
<glyph unicode="&#x2014;" horiz-adv-x="2080" d="M201 588v39h1679v-39h-1679z" />
<glyph unicode="&#x2018;" horiz-adv-x="464" d="M188 1270q0 137 72 278l27 -12q-63 -120 -66 -223q3 6 21 6q21 0 33 -13.5t12 -35.5t-13 -35.5t-36 -13.5t-36.5 13.5t-13.5 35.5z" />
<glyph unicode="&#x2019;" horiz-adv-x="464" d="M188 1135q63 120 66 223q-3 -6 -21 -6q-21 0 -33 13.5t-12 35.5t13.5 35.5t36.5 13.5t36 -13.5t13 -35.5q0 -138 -72 -279z" />
<glyph unicode="&#x201a;" horiz-adv-x="464" d="M188 37q0 22 13.5 35.5t36.5 13.5t36 -13.5t13 -35.5q0 -138 -72 -279l-27 13q63 120 66 223q-3 -6 -21 -6q-21 0 -33 13.5t-12 35.5z" />
<glyph unicode="&#x201c;" horiz-adv-x="645" d="M188 1257q0 138 72 279l27 -12q-63 -120 -66 -224q3 7 21 7q21 0 33 -14t12 -36t-13 -35.5t-36 -13.5t-36.5 13.5t-13.5 35.5zM369 1257q0 140 71 279l27 -12q-63 -120 -66 -224q3 7 21 7q21 0 33 -14t12 -36t-13 -35.5t-36 -13.5t-36 13.5t-13 35.5z" />
<glyph unicode="&#x201d;" horiz-adv-x="645" d="M188 1135q63 120 66 223q-3 -6 -21 -6q-21 0 -33 13.5t-12 35.5t13.5 35.5t36.5 13.5t36 -13.5t13 -35.5q0 -138 -72 -279zM369 1135q62 118 65 223q-3 -6 -20 -6q-21 0 -33 13.5t-12 35.5t13 35.5t36 13.5t36 -13.5t13 -35.5q0 -138 -72 -279z" />
<glyph unicode="&#x201e;" horiz-adv-x="645" d="M188 37q0 22 13.5 35.5t36.5 13.5t36 -13.5t13 -35.5q0 -138 -72 -279l-27 13q63 120 66 223q-3 -6 -21 -6q-21 0 -33 13.5t-12 35.5zM369 37q0 22 13 35.5t36 13.5t36 -13.5t13 -35.5q0 -138 -72 -279l-26 13q62 118 65 223q-3 -6 -20 -6q-21 0 -33 13.5t-12 35.5z" />
<glyph unicode="&#x2022;" horiz-adv-x="675" d="M248 567q0 36 25 62t65 26t65 -26t25 -62t-25 -62t-65 -26t-65 26t-25 62z" />
<glyph unicode="&#x2026;" horiz-adv-x="1306" d="M178 37q0 22 13 35.5t36 13.5t36 -13.5t13 -35.5t-13 -35.5t-36 -13.5t-36 13.5t-13 35.5zM604 37q0 22 13 35.5t36 13.5t36 -13.5t13 -35.5t-13 -35.5t-36 -13.5t-36 13.5t-13 35.5zM1030 37q0 22 13 35.5t36 13.5t36 -13.5t13 -35.5t-13 -35.5t-36 -13.5t-36 13.5 t-13 35.5z" />
<glyph unicode="&#x202f;" horiz-adv-x="399" />
<glyph unicode="&#x2039;" horiz-adv-x="798" d="M125 608l450 -430h56l-451 430l451 430h-56z" />
<glyph unicode="&#x203a;" horiz-adv-x="798" d="M168 178h55l451 430l-451 430h-55l450 -430z" />
<glyph unicode="&#x205f;" horiz-adv-x="498" />
<glyph unicode="&#x20ac;" horiz-adv-x="1884" d="M119 555v39h221q-6 58 -6 123t6 123h-221v39h227q44 279 236.5 437.5t509.5 158.5q225 0 379 -78.5t260 -231.5l-35 -24q-103 147 -248 221t-356 74q-290 0 -474.5 -145.5t-228.5 -411.5h1053v-39h-1059q-6 -58 -6 -123t6 -123h1059v-39h-1053q44 -266 228.5 -411.5 t474.5 -145.5q211 0 356 74t248 221l35 -25q-105 -152 -259.5 -230.5t-379.5 -78.5q-317 0 -509.5 158.5t-236.5 437.5h-227z" />
<glyph unicode="&#x2122;" horiz-adv-x="2000" d="M94 1397v37h723v-37h-342v-664h-39v664h-342zM938 733v701h39l381 -478l385 478h35v-701h-39v641l-379 -477h-6l-377 477v-641h-39z" />
<glyph unicode="&#x25fc;" horiz-adv-x="1105" d="M0 0v1106h1106v-1106h-1106z" />
</font>
</defs>
</svg>
